<mxfile host="app.diagrams.net" modified="2023-04-11T22:46:53.693Z" agent="Mozilla/5.0 (Windows NT 10.0; Win64; x64) AppleWebKit/537.36 (KHTML, like Gecko) Chrome/112.0.0.0 Safari/537.36 Edg/112.0.1722.34" version="21.1.6" etag="lVFBSj_mgaXu7XpyBU-g" type="github">
  <diagram name="PÃ¡gina-1" id="QfaCoJWIr1v1i-gHjHco">
    <mxGraphModel>
      <root>
        <mxCell id="0" />
        <mxCell id="1" parent="0" />
      </root>
    </mxGraphModel>
  </diagram>
</mxfile>
